<mxfile host="app.diagrams.net" modified="2024-05-09T08:54:26.263Z" agent="Mozilla/5.0 (X11; Linux x86_64) AppleWebKit/537.36 (KHTML, like Gecko) Chrome/124.0.0.0 Safari/537.36" etag="ULo5qouvv8ORu8G0NbLE" version="24.3.1" type="github">
  <diagram name="第 1 页" id="bsgujQVWhJ1CBmvAX9UT">
    <mxGraphModel dx="877" dy="348" grid="1" gridSize="10" guides="1" tooltips="1" connect="1" arrows="1" fold="1" page="1" pageScale="1" pageWidth="827" pageHeight="1169" math="0" shadow="0">
      <root>
        <mxCell id="0" />
        <mxCell id="1" parent="0" />
        <mxCell id="AX1ELchu_M3omdYsO0jj-23" value="" style="rounded=0;whiteSpace=wrap;html=1;opacity=50;fillColor=#dae8fc;strokeColor=#6c8ebf;" vertex="1" parent="1">
          <mxGeometry x="40" y="170" width="240" height="170" as="geometry" />
        </mxCell>
        <mxCell id="AX1ELchu_M3omdYsO0jj-21" value="" style="rounded=0;whiteSpace=wrap;html=1;opacity=50;fillColor=#dae8fc;strokeColor=#6c8ebf;" vertex="1" parent="1">
          <mxGeometry x="40" y="170" width="200" height="160" as="geometry" />
        </mxCell>
        <mxCell id="AX1ELchu_M3omdYsO0jj-19" value="" style="rounded=0;whiteSpace=wrap;html=1;opacity=50;fillColor=#dae8fc;strokeColor=#6c8ebf;" vertex="1" parent="1">
          <mxGeometry x="40" y="170" width="160" height="150" as="geometry" />
        </mxCell>
        <mxCell id="AX1ELchu_M3omdYsO0jj-18" value="" style="rounded=0;whiteSpace=wrap;html=1;opacity=50;fillColor=#dae8fc;strokeColor=#6c8ebf;" vertex="1" parent="1">
          <mxGeometry x="40" y="170" width="120" height="140" as="geometry" />
        </mxCell>
        <mxCell id="AX1ELchu_M3omdYsO0jj-13" value="" style="rounded=0;whiteSpace=wrap;html=1;opacity=50;fillColor=#dae8fc;strokeColor=#6c8ebf;" vertex="1" parent="1">
          <mxGeometry x="40" y="170" width="80" height="130" as="geometry" />
        </mxCell>
        <mxCell id="AX1ELchu_M3omdYsO0jj-1" value="2" style="rounded=0;whiteSpace=wrap;html=1;" vertex="1" parent="1">
          <mxGeometry x="40" y="200" width="40" height="40" as="geometry" />
        </mxCell>
        <mxCell id="AX1ELchu_M3omdYsO0jj-2" value="3" style="rounded=0;whiteSpace=wrap;html=1;" vertex="1" parent="1">
          <mxGeometry x="80" y="200" width="40" height="40" as="geometry" />
        </mxCell>
        <mxCell id="AX1ELchu_M3omdYsO0jj-3" value="1" style="rounded=0;whiteSpace=wrap;html=1;" vertex="1" parent="1">
          <mxGeometry x="120" y="200" width="40" height="40" as="geometry" />
        </mxCell>
        <mxCell id="AX1ELchu_M3omdYsO0jj-4" value="2" style="rounded=0;whiteSpace=wrap;html=1;" vertex="1" parent="1">
          <mxGeometry x="160" y="200" width="40" height="40" as="geometry" />
        </mxCell>
        <mxCell id="AX1ELchu_M3omdYsO0jj-5" value="4" style="rounded=0;whiteSpace=wrap;html=1;" vertex="1" parent="1">
          <mxGeometry x="200" y="200" width="40" height="40" as="geometry" />
        </mxCell>
        <mxCell id="AX1ELchu_M3omdYsO0jj-6" value="3" style="rounded=0;whiteSpace=wrap;html=1;" vertex="1" parent="1">
          <mxGeometry x="240" y="200" width="40" height="40" as="geometry" />
        </mxCell>
        <mxCell id="AX1ELchu_M3omdYsO0jj-9" value="" style="endArrow=classic;html=1;rounded=0;entryX=0.5;entryY=1;entryDx=0;entryDy=0;" edge="1" parent="1" target="AX1ELchu_M3omdYsO0jj-1">
          <mxGeometry width="50" height="50" relative="1" as="geometry">
            <mxPoint x="60" y="270" as="sourcePoint" />
            <mxPoint x="240" y="330" as="targetPoint" />
          </mxGeometry>
        </mxCell>
        <mxCell id="AX1ELchu_M3omdYsO0jj-10" value="i" style="text;html=1;align=center;verticalAlign=middle;whiteSpace=wrap;rounded=0;" vertex="1" parent="1">
          <mxGeometry x="45" y="270" width="30" height="30" as="geometry" />
        </mxCell>
        <mxCell id="AX1ELchu_M3omdYsO0jj-43" value="" style="endArrow=classic;html=1;rounded=0;entryX=0.5;entryY=1;entryDx=0;entryDy=0;" edge="1" parent="1">
          <mxGeometry width="50" height="50" relative="1" as="geometry">
            <mxPoint x="100" y="270" as="sourcePoint" />
            <mxPoint x="100" y="240" as="targetPoint" />
          </mxGeometry>
        </mxCell>
        <mxCell id="AX1ELchu_M3omdYsO0jj-44" value="j" style="text;html=1;align=center;verticalAlign=middle;whiteSpace=wrap;rounded=0;" vertex="1" parent="1">
          <mxGeometry x="85" y="270" width="30" height="30" as="geometry" />
        </mxCell>
        <mxCell id="AX1ELchu_M3omdYsO0jj-45" value="" style="endArrow=classic;html=1;rounded=0;entryX=0.5;entryY=1;entryDx=0;entryDy=0;" edge="1" parent="1">
          <mxGeometry width="50" height="50" relative="1" as="geometry">
            <mxPoint x="140" y="280" as="sourcePoint" />
            <mxPoint x="140" y="250" as="targetPoint" />
          </mxGeometry>
        </mxCell>
        <mxCell id="AX1ELchu_M3omdYsO0jj-46" value="j" style="text;html=1;align=center;verticalAlign=middle;whiteSpace=wrap;rounded=0;" vertex="1" parent="1">
          <mxGeometry x="125" y="280" width="30" height="30" as="geometry" />
        </mxCell>
        <mxCell id="AX1ELchu_M3omdYsO0jj-47" value="" style="endArrow=classic;html=1;rounded=0;entryX=0.5;entryY=1;entryDx=0;entryDy=0;" edge="1" parent="1">
          <mxGeometry width="50" height="50" relative="1" as="geometry">
            <mxPoint x="180" y="290" as="sourcePoint" />
            <mxPoint x="180" y="260" as="targetPoint" />
          </mxGeometry>
        </mxCell>
        <mxCell id="AX1ELchu_M3omdYsO0jj-48" value="j" style="text;html=1;align=center;verticalAlign=middle;whiteSpace=wrap;rounded=0;" vertex="1" parent="1">
          <mxGeometry x="165" y="290" width="30" height="30" as="geometry" />
        </mxCell>
        <mxCell id="AX1ELchu_M3omdYsO0jj-49" value="" style="endArrow=classic;html=1;rounded=0;entryX=0.5;entryY=1;entryDx=0;entryDy=0;" edge="1" parent="1">
          <mxGeometry width="50" height="50" relative="1" as="geometry">
            <mxPoint x="220" y="300" as="sourcePoint" />
            <mxPoint x="220" y="270" as="targetPoint" />
          </mxGeometry>
        </mxCell>
        <mxCell id="AX1ELchu_M3omdYsO0jj-50" value="j" style="text;html=1;align=center;verticalAlign=middle;whiteSpace=wrap;rounded=0;" vertex="1" parent="1">
          <mxGeometry x="205" y="300" width="30" height="30" as="geometry" />
        </mxCell>
        <mxCell id="AX1ELchu_M3omdYsO0jj-51" value="" style="endArrow=classic;html=1;rounded=0;entryX=0.5;entryY=1;entryDx=0;entryDy=0;" edge="1" parent="1">
          <mxGeometry width="50" height="50" relative="1" as="geometry">
            <mxPoint x="260" y="310" as="sourcePoint" />
            <mxPoint x="260" y="280" as="targetPoint" />
          </mxGeometry>
        </mxCell>
        <mxCell id="AX1ELchu_M3omdYsO0jj-52" value="j" style="text;html=1;align=center;verticalAlign=middle;whiteSpace=wrap;rounded=0;" vertex="1" parent="1">
          <mxGeometry x="245" y="310" width="30" height="30" as="geometry" />
        </mxCell>
        <mxCell id="AX1ELchu_M3omdYsO0jj-54" value="" style="rounded=0;whiteSpace=wrap;html=1;opacity=50;fillColor=#d5e8d4;strokeColor=#82b366;" vertex="1" parent="1">
          <mxGeometry x="340" y="170" width="200" height="160" as="geometry" />
        </mxCell>
        <mxCell id="AX1ELchu_M3omdYsO0jj-55" value="" style="rounded=0;whiteSpace=wrap;html=1;opacity=50;fillColor=#d5e8d4;strokeColor=#82b366;" vertex="1" parent="1">
          <mxGeometry x="340" y="170" width="160" height="150" as="geometry" />
        </mxCell>
        <mxCell id="AX1ELchu_M3omdYsO0jj-56" value="" style="rounded=0;whiteSpace=wrap;html=1;opacity=50;fillColor=#d5e8d4;strokeColor=#82b366;" vertex="1" parent="1">
          <mxGeometry x="340" y="170" width="120" height="140" as="geometry" />
        </mxCell>
        <mxCell id="AX1ELchu_M3omdYsO0jj-57" value="" style="rounded=0;whiteSpace=wrap;html=1;opacity=50;fillColor=#d5e8d4;strokeColor=#82b366;" vertex="1" parent="1">
          <mxGeometry x="340" y="170" width="80" height="130" as="geometry" />
        </mxCell>
        <mxCell id="AX1ELchu_M3omdYsO0jj-64" value="" style="endArrow=classic;html=1;rounded=0;entryX=0.5;entryY=1;entryDx=0;entryDy=0;" edge="1" parent="1">
          <mxGeometry width="50" height="50" relative="1" as="geometry">
            <mxPoint x="360" y="270" as="sourcePoint" />
            <mxPoint x="360" y="240" as="targetPoint" />
          </mxGeometry>
        </mxCell>
        <mxCell id="AX1ELchu_M3omdYsO0jj-65" value="i" style="text;html=1;align=center;verticalAlign=middle;whiteSpace=wrap;rounded=0;" vertex="1" parent="1">
          <mxGeometry x="345" y="270" width="30" height="30" as="geometry" />
        </mxCell>
        <mxCell id="AX1ELchu_M3omdYsO0jj-66" value="" style="endArrow=classic;html=1;rounded=0;entryX=0.5;entryY=1;entryDx=0;entryDy=0;" edge="1" parent="1">
          <mxGeometry width="50" height="50" relative="1" as="geometry">
            <mxPoint x="400" y="270" as="sourcePoint" />
            <mxPoint x="400" y="240" as="targetPoint" />
          </mxGeometry>
        </mxCell>
        <mxCell id="AX1ELchu_M3omdYsO0jj-67" value="j" style="text;html=1;align=center;verticalAlign=middle;whiteSpace=wrap;rounded=0;" vertex="1" parent="1">
          <mxGeometry x="385" y="270" width="30" height="30" as="geometry" />
        </mxCell>
        <mxCell id="AX1ELchu_M3omdYsO0jj-68" value="" style="endArrow=classic;html=1;rounded=0;entryX=0.5;entryY=1;entryDx=0;entryDy=0;" edge="1" parent="1">
          <mxGeometry width="50" height="50" relative="1" as="geometry">
            <mxPoint x="440" y="280" as="sourcePoint" />
            <mxPoint x="440" y="250" as="targetPoint" />
          </mxGeometry>
        </mxCell>
        <mxCell id="AX1ELchu_M3omdYsO0jj-69" value="j" style="text;html=1;align=center;verticalAlign=middle;whiteSpace=wrap;rounded=0;" vertex="1" parent="1">
          <mxGeometry x="425" y="280" width="30" height="30" as="geometry" />
        </mxCell>
        <mxCell id="AX1ELchu_M3omdYsO0jj-70" value="" style="endArrow=classic;html=1;rounded=0;entryX=0.5;entryY=1;entryDx=0;entryDy=0;" edge="1" parent="1">
          <mxGeometry width="50" height="50" relative="1" as="geometry">
            <mxPoint x="480" y="290" as="sourcePoint" />
            <mxPoint x="480" y="260" as="targetPoint" />
          </mxGeometry>
        </mxCell>
        <mxCell id="AX1ELchu_M3omdYsO0jj-71" value="j" style="text;html=1;align=center;verticalAlign=middle;whiteSpace=wrap;rounded=0;" vertex="1" parent="1">
          <mxGeometry x="465" y="290" width="30" height="30" as="geometry" />
        </mxCell>
        <mxCell id="AX1ELchu_M3omdYsO0jj-72" value="" style="endArrow=classic;html=1;rounded=0;entryX=0.5;entryY=1;entryDx=0;entryDy=0;" edge="1" parent="1">
          <mxGeometry width="50" height="50" relative="1" as="geometry">
            <mxPoint x="520" y="300" as="sourcePoint" />
            <mxPoint x="520" y="270" as="targetPoint" />
          </mxGeometry>
        </mxCell>
        <mxCell id="AX1ELchu_M3omdYsO0jj-73" value="j" style="text;html=1;align=center;verticalAlign=middle;whiteSpace=wrap;rounded=0;" vertex="1" parent="1">
          <mxGeometry x="505" y="300" width="30" height="30" as="geometry" />
        </mxCell>
        <mxCell id="AX1ELchu_M3omdYsO0jj-76" value="2" style="rounded=0;whiteSpace=wrap;html=1;" vertex="1" parent="1">
          <mxGeometry x="300" y="200" width="40" height="40" as="geometry" />
        </mxCell>
        <mxCell id="AX1ELchu_M3omdYsO0jj-77" value="3" style="rounded=0;whiteSpace=wrap;html=1;" vertex="1" parent="1">
          <mxGeometry x="340" y="200" width="40" height="40" as="geometry" />
        </mxCell>
        <mxCell id="AX1ELchu_M3omdYsO0jj-78" value="1" style="rounded=0;whiteSpace=wrap;html=1;" vertex="1" parent="1">
          <mxGeometry x="380" y="200" width="40" height="40" as="geometry" />
        </mxCell>
        <mxCell id="AX1ELchu_M3omdYsO0jj-79" value="2" style="rounded=0;whiteSpace=wrap;html=1;" vertex="1" parent="1">
          <mxGeometry x="420" y="200" width="40" height="40" as="geometry" />
        </mxCell>
        <mxCell id="AX1ELchu_M3omdYsO0jj-80" value="4" style="rounded=0;whiteSpace=wrap;html=1;" vertex="1" parent="1">
          <mxGeometry x="460" y="200" width="40" height="40" as="geometry" />
        </mxCell>
        <mxCell id="AX1ELchu_M3omdYsO0jj-81" value="3" style="rounded=0;whiteSpace=wrap;html=1;" vertex="1" parent="1">
          <mxGeometry x="500" y="200" width="40" height="40" as="geometry" />
        </mxCell>
      </root>
    </mxGraphModel>
  </diagram>
</mxfile>
